<?xml version="1.0" encoding="UTF-8" standalone="no"?>
<svg
   xmlns:dc="http://purl.org/dc/elements/1.1/"
   xmlns:cc="http://creativecommons.org/ns#"
   xmlns:rdf="http://www.w3.org/1999/02/22-rdf-syntax-ns#"
   xmlns:svg="http://www.w3.org/2000/svg"
   xmlns="http://www.w3.org/2000/svg"
   viewBox="0 0 4325.3999 4325.3335"
   height="4325.3335"
   width="4325.3999"
   xml:space="preserve"
   id="svg2"
   version="1.1"><metadata
     id="metadata8"><rdf:RDF><cc:Work
         rdf:about=""><dc:format>image/svg+xml</dc:format><dc:type
           rdf:resource="http://purl.org/dc/dcmitype/StillImage" /></cc:Work></rdf:RDF></metadata><defs
     id="defs6" /><g
     transform="matrix(1.3333333,0,0,-1.3333333,0,4325.3333)"
     id="g10"><g
       transform="scale(0.1)"
       id="g12"><g
         transform="scale(1.99025)"
         id="g14"><path
           id="path16"
           style="fill:#e03930;fill-opacity:1;fill-rule:nonzero;stroke:none"
           d="M 15992.4,8875.84 8875.74,15992.1 c -409.6,409.9 -1074.29,409.9 -1484.44,0 L 5913.54,14514.3 7788.19,12639.6 c 435.62,147.2 935.21,48.5 1282.45,-298.8 348.9,-349.5 446.98,-853.3 296.2,-1290.4 L 11173.5,9243.74 c 437.1,150.58 941.4,53.15 1290.5,-296.5 488,-487.73 488,-1278.24 0,-1766.27 -488,-488.08 -1278.4,-488.08 -1766.7,0 -367.1,367.4 -457.7,906.38 -271.9,1358.48 l -1684.87,1684.85 -0.2,-4433.81 c 122.15,-60.39 233.69,-140.18 330.31,-236.25 487.93,-487.73 487.93,-1278.23 0,-1766.67 -488.03,-487.83 -1278.89,-487.83 -1766.21,0 -487.93,488.44 -487.93,1278.89 0,1766.62 116.92,116.97 255.84,209.62 408.79,272.58 v 4475.13 c -153.15,62.6 -292.18,155.3 -408.79,272.6 -369.71,369.2 -458.59,911.6 -269.17,1365.5 L 5187.3,13788.2 307.533,8908.75 c -410.043,-410.2 -410.043,-1074.99 0,-1484.94 L 7424.31,307.449 c 409.7,-409.949 1074.34,-409.949 1484.54,0 L 15992.4,7390.8 c 409.8,410.05 409.8,1075.19 0,1485.04" /></g></g></g></svg>